HIERARCHY
ROOT Hips
{
    OFFSET 0.000000 0.000000 0.000000
    CHANNELS 6 Xposition Yposition Zposition Zrotation Xrotation Yrotation
    JOINT Spine
    {
        OFFSET -0.000000 7.897928 0.000000
        CHANNELS 3 Zrotation Xrotation Yrotation
        JOINT Spine1
        {
            OFFSET -0.000000 22.881742 0.000000
            CHANNELS 3 Zrotation Xrotation Yrotation
            JOINT Neck
            {
                OFFSET -0.000000 22.787771 2.071616
                CHANNELS 3 Zrotation Xrotation Yrotation
                JOINT Head
                {
                    OFFSET -0.000000 13.484266 -1.926324
                    CHANNELS 3 Zrotation Xrotation Yrotation
                    End Site
                    {
                        OFFSET -0.000000 24.079046 0.000000
                    }
                }
            }
            JOINT LeftShoulder
            {
                OFFSET 3.854963 21.096247 -0.110468
                CHANNELS 3 Zrotation Xrotation Yrotation
                JOINT LeftArm
                {
                    OFFSET 10.572188 0.000000 0.000000
                    CHANNELS 3 Zrotation Xrotation Yrotation
                    JOINT LeftForeArm
                    {
                        OFFSET 34.932854 0.000000 0.000000
                        CHANNELS 3 Zrotation Xrotation Yrotation
                        JOINT LeftHand
                        {
                            OFFSET 23.279285 0.000000 0.000000
                            CHANNELS 3 Zrotation Xrotation Yrotation
                            End Site
                            {
                                OFFSET 14.447429 0.000000 0.000000
                            }
                        }
                    }
                }
            }
            JOINT RightShoulder
            {
                OFFSET -3.825334 21.096247 -0.110468
                CHANNELS 3 Zrotation Xrotation Yrotation
                JOINT RightArm
                {
                    OFFSET -10.572188 0.000000 0.000000
                    CHANNELS 3 Zrotation Xrotation Yrotation
                    JOINT RightForeArm
                    {
                        OFFSET -34.932854 0.000000 0.000000
                        CHANNELS 3 Zrotation Xrotation Yrotation
                        JOINT RightHand
                        {
                            OFFSET -23.279285 0.000000 0.000000
                            CHANNELS 3 Zrotation Xrotation Yrotation
                            End Site
                            {
                                OFFSET -14.447429 0.000000 0.000000
                            }
                        }
                    }
                }
            }
        }
    }
    JOINT LeftUpLeg
    {
        OFFSET 9.631618 0.000000 0.000000
        CHANNELS 3 Zrotation Xrotation Yrotation
        JOINT LeftLeg
        {
            OFFSET -0.000000 -35.385456 0.000000
            CHANNELS 3 Zrotation Xrotation Yrotation
            JOINT LeftFoot
            {
                OFFSET -0.000000 -43.284000 0.000000
                CHANNELS 3 Zrotation Xrotation Yrotation
                JOINT LeftToeBase
                {
                    OFFSET -0.000000 -6.260552 14.447429
                    CHANNELS 3 Zrotation Xrotation Yrotation
                    End Site
                    {
                        OFFSET -0.000000 0.000000 3.852648
                    }
                }
            }
        }
    }
    JOINT RightUpLeg
    {
        OFFSET -9.631618 0.000000 0.000000
        CHANNELS 3 Zrotation Xrotation Yrotation
        JOINT RightLeg
        {
            OFFSET -0.000000 -35.385456 0.000000
            CHANNELS 3 Zrotation Xrotation Yrotation
            JOINT RightFoot
            {
                OFFSET -0.000000 -43.284000 0.000000
                CHANNELS 3 Zrotation Xrotation Yrotation
                JOINT RightToeBase
                {
                    OFFSET -0.000000 -6.260552 14.447429
                    CHANNELS 3 Zrotation Xrotation Yrotation
                    End Site
                    {
                        OFFSET -0.000000 0.000000 3.852648
                    }
                }
            }
        }
    }
}
MOTION
Frames:    13
Frame Time:    0.008333
-0.640139    88.223518    35.440899    -1.080045    -1.215662    83.766685    1.461900    -3.574529    -0.218496    -0.428583    -0.553601    -0.266377    -0.659797    13.853581    -9.464630    8.261415    2.328446    -8.835062    16.111780    2.506464    2.817672    -17.462500    8.733172    -9.113687    3.210308    -6.173487    -1.082316    -6.651588    -5.945206    -3.427680    -13.429484    0.273356    8.333384    15.449600    1.564430    1.358261    -1.423837    -2.403603    0.995165    -0.972101    -2.411645    2.402513    3.578476    1.712209    3.608593    -4.328862    8.976976    -13.090681    2.633710    -10.174240    21.155640    0.000000    0.000000    0.000000    -2.321552    -4.487754    0.329965    4.656869    16.496462    2.871573    -1.555710    -10.330784    -11.533059    0.000000    0.000000    0.000000    
-0.599149    88.232407    35.456142    -1.041364    -1.235231    83.696007    1.399447    -3.614408    -0.207826    -0.361344    -0.517078    -0.253585    -1.209589    13.539643    -9.553625    8.982155    2.987808    -8.875769    16.194004    2.386489    2.835069    -17.498960    8.746437    -9.040546    3.173742    -6.187386    -1.040477    -6.682030    -5.963960    -3.354070    -13.490581    0.216175    8.277721    15.511125    1.698548    1.405887    -1.460385    -2.309721    1.018429    -1.043267    -2.317801    2.313432    3.584606    1.811428    3.533545    -4.334103    8.935696    -12.990508    2.565357    -10.196922    21.215431    0.000000    0.000000    0.000000    -2.282988    -4.288140    0.600143    4.694777    16.231222    2.588117    -1.553462    -10.280119    -11.446658    0.000000    0.000000    0.000000    
-0.568364    88.232010    35.464211    -1.019536    -1.268919    83.622437    1.427291    -3.663630    -0.189046    -0.381715    -0.453497    -0.236345    -1.153887    13.434771    -9.574164    8.882851    3.135080    -8.920407    16.251842    2.352059    2.885486    -17.497108    8.721299    -9.054754    3.148707    -6.236676    -0.995153    -6.856774    -6.007944    -3.382435    -13.512509    0.171218    8.259087    15.554818    1.771543    1.435964    -1.454587    -2.188455    1.008806    -1.049633    -2.196974    2.325551    3.615787    1.899111    3.559315    -4.339857    8.888343    -12.986935    2.552737    -10.222307    21.251904    0.000000    0.000000    0.000000    -2.235215    -4.199060    0.626725    4.666245    16.141605    2.607137    -1.551673    -10.256119    -11.415812    0.000000    0.000000    0.000000    
-0.521467    88.228897    35.475510    -0.973284    -1.280142    83.612251    1.394578    -3.725238    -0.193474    -0.358307    -0.355761    -0.240184    -1.144497    13.423738    -9.573656    8.878836    3.145175    -8.921227    16.316303    2.310682    2.912809    -17.518478    8.700070    -9.070913    3.040605    -6.160007    -0.896237    -6.695793    -5.930787    -3.532627    -13.528020    0.167551    8.235291    15.563940    1.800864    1.455241    -1.497186    -2.196699    1.057542    -0.968215    -2.201739    2.231848    3.619259    2.009869    3.526288    -4.336480    8.835486    -12.971471    2.535898    -10.237449    21.274101    0.000000    0.000000    0.000000    -2.222286    -4.048633    0.610918    4.652697    16.017603    2.614656    -1.568512    -10.255413    -11.390958    0.000000    0.000000    0.000000    
-0.501968    88.231812    35.482456    -0.963789    -1.295140    83.567886    1.408994    -3.740055    -0.189729    -0.392653    -0.377128    -0.236987    -0.784310    13.634244    -9.482803    8.402061    2.775555    -8.865117    16.365517    2.308843    2.948167    -17.498310    8.648338    -9.101675    3.027152    -6.146288    -0.783815    -7.061552    -5.899200    -3.689844    -13.503769    0.184611    8.269933    15.565286    1.827794    1.439299    -1.502822    -2.169299    1.091945    -0.922477    -2.172346    2.153880    3.631461    2.053764    3.547135    -4.338428    8.814314    -12.960808    2.501575    -10.258949    21.291027    0.000000    0.000000    0.000000    -2.200698    -4.026043    0.380883    4.573594    16.023664    2.901649    -1.588074    -10.232099    -11.396785    0.000000    0.000000    0.000000    
-0.486717    88.234894    35.489368    -0.960893    -1.309365    83.536453    1.401556    -3.791638    -0.189756    -0.389837    -0.323887    -0.237430    -0.676093    13.701331    -9.497090    8.234178    2.630005    -8.892478    16.409477    2.263131    2.983756    -17.493038    8.613221    -9.110044    3.003009    -6.098224    -0.724101    -6.970500    -5.858131    -3.650940    -13.508142    0.160482    8.264050    15.571120    1.847822    1.453263    -1.498649    -2.141519    1.086553    -0.846108    -2.143111    2.136562    3.645912    2.082965    3.533751    -4.339035    8.794715    -12.962907    2.471228    -10.262525    21.334965    0.000000    0.000000    0.000000    -2.176009    -3.984472    0.367595    4.550578    15.980289    2.910027    -1.551039    -10.225269    -11.357609    0.000000    0.000000    0.000000    
-0.470648    88.238510    35.499130    -0.956384    -1.324401    83.502342    1.384665    -3.802331    -0.177631    -0.374245    -0.359132    -0.224938    -0.686289    13.660288    -9.461801    8.266424    2.766500    -8.861095    16.424391    2.275148    2.969694    -17.480125    8.534336    -9.113709    2.997868    -6.009198    -0.661479    -6.868571    -5.776230    -3.613233    -13.485483    0.160423    8.261616    15.558991    1.879454    1.441849    -1.492964    -2.172261    1.086003    -0.798969    -2.172989    2.134509    3.664444    2.116275    3.534822    -4.343361    8.776631    -12.939904    2.448398    -10.264968    21.341866    0.000000    0.000000    0.000000    -2.147686    -3.942294    0.359524    4.530644    15.922899    2.917242    -1.553133    -10.195114    -11.322433    0.000000    0.000000    0.000000    
-0.456087    88.240875    35.506508    -0.951613    -1.336465    83.474602    1.362760    -3.822050    -0.179868    -0.340269    -0.375781    -0.226707    -0.713024    13.690597    -9.456401    8.275274    2.786560    -8.855411    16.420696    2.254570    2.965944    -17.468121    8.492806    -9.089554    3.074276    -5.915298    -0.674044    -7.006435    -5.690220    -3.399014    -13.478181    0.159471    8.291907    15.546606    1.862086    1.427259    -1.450440    -2.246665    1.075882    -1.033888    -2.252281    2.130189    3.682502    2.158447    3.525382    -4.357038    8.734785    -12.914185    2.404758    -10.272430    21.355679    0.000000    0.000000    0.000000    -2.133414    -3.901084    0.353888    4.524539    15.875531    2.958788    -1.559139    -10.176920    -11.328983    0.000000    0.000000    0.000000    
-0.441890    88.244476    35.511047    -0.948083    -1.336763    83.440918    1.346630    -3.825398    -0.181448    -0.335294    -0.428793    -0.227844    -0.706540    13.732388    -9.447805    8.243711    2.809355    -8.852218    16.418684    2.259984    2.954720    -17.449635    8.433004    -9.044696    3.093165    -5.883297    -0.703471    -6.800784    -5.674565    -3.210590    -13.449761    0.176628    8.321974    15.528976    1.843255    1.426142    -1.442678    -2.291233    1.070897    -1.111175    -2.298199    2.108924    3.685026    2.200554    3.523195    -4.361760    8.697460    -12.886736    2.387496    -10.258204    21.351059    0.000000    0.000000    0.000000    -2.133417    -3.870602    0.361099    4.524091    15.838793    2.960901    -1.547198    -10.162621    -11.306292    0.000000    0.000000    0.000000    
-0.431313    88.247620    35.517433    -0.950194    -1.346348    83.410843    1.336801    -3.836799    -0.189918    -0.320407    -0.472496    -0.236192    -0.720227    13.816816    -9.421480    8.240879    2.760114    -8.821768    16.403358    2.264301    2.938426    -17.421959    8.399440    -8.983445    3.135241    -5.861855    -0.677587    -6.628427    -5.654819    -3.272472    -13.426044    0.185402    8.381167    15.509130    1.712967    1.416321    -1.456411    -2.213383    1.012766    -0.904469    -2.217736    2.180888    3.699916    2.243959    3.530318    -4.371014    8.640208    -12.857325    2.336478    -10.257576    21.346943    0.000000    0.000000    0.000000    -2.121714    -3.862826    0.376376    4.527167    15.827426    2.991747    -1.566861    -10.150470    -11.322470    0.000000    0.000000    0.000000    
-0.418800    88.249901    35.523598    -0.938580    -1.351997    83.385529    1.312654    -3.826522    -0.205598    -0.270429    -0.523072    -0.250927    -0.806992    13.849707    -9.401145    8.273029    2.791987    -8.797310    16.355831    2.258958    2.939016    -17.383181    8.417323    -8.920119    3.133162    -5.867143    -0.691819    -6.489385    -5.663326    -3.279007    -13.468367    0.202198    8.420466    15.533233    1.599331    1.435845    -1.450412    -2.132269    0.979877    -0.949557    -2.137632    2.146354    3.712894    2.303930    3.522463    -4.388476    8.578022    -12.835340    2.316941    -10.245305    21.348429    0.000000    0.000000    0.000000    -2.115620    -3.825607    0.379566    4.526116    15.795078    2.990874    -1.548033    -10.143578    -11.303358    0.000000    0.000000    0.000000    
-0.409622    88.252106    35.530098    -0.941852    -1.366152    83.359093    1.321365    -3.829517    -0.209742    -0.288168    -0.569032    -0.255636    -0.838551    13.847404    -9.402145    8.314587    2.866386    -8.798119    16.387524    2.271650    2.923222    -17.375973    8.439506    -8.861465    3.130898    -5.900696    -0.704143    -6.467321    -5.694776    -3.322040    -13.433377    0.199279    8.455048    15.526534    1.561005    1.418018    -1.416600    -2.085070    0.965382    -1.178439    -2.094943    2.121027    3.736658    2.345222    3.521866    -4.385104    8.569608    -12.839311    2.264166    -10.307384    21.341206    0.000000    0.000000    0.000000    -2.104491    -3.824923    0.352967    4.528219    15.799285    3.056106    -1.577486    -10.125967    -11.319681    0.000000    0.000000    0.000000    
-0.402088    88.254974    35.531624    -0.940347    -1.364898    83.337273    1.305511    -3.843024    -0.220131    -0.267931    -0.566339    -0.265309    -0.892860    13.835571    -9.383165    8.339458    2.871436    -8.774432    16.400515    2.258137    2.950886    -17.362259    8.446344    -8.834179    3.136229    -6.020950    -0.711788    -6.585138    -5.807630    -3.388132    -13.460540    0.168022    8.390309    15.537389    1.508275    1.516938    -1.389947    -1.989295    0.934970    -1.311315    -2.002008    2.101383    3.731149    2.382252    3.508240    -4.384821    8.522930    -12.812659    2.247597    -10.302097    21.344969    0.000000    0.000000    0.000000    -2.113925    -3.811232    0.350261    4.540325    15.782386    3.067780    -1.578510    -10.110400    -11.315482    0.000000    0.000000    0.000000    
